<?xml version="1.0" encoding="utf-8"?>
<!-- Generator: Adobe Illustrator 22.1.0, SVG Export Plug-In . SVG Version: 6.00 Build 0)  -->
<svg version="1.1" id="Laag_1" xmlns="http://www.w3.org/2000/svg" xmlns:xlink="http://www.w3.org/1999/xlink" x="0px" y="0px"
	 viewBox="0 0 205.4 151.7" style="enable-background:new 0 0 205.4 151.7;" xml:space="preserve">
<style type="text/css">
	.st0{fill:url(#SVGID_1_);}
	.st1{fill:#163E65;}
	.st2{fill:url(#SVGID_2_);}
	.st3{fill:#FFFFFF;}
	.st4{enable-background:new    ;}
	.st5{fill:#6BA63F;}
	.st6{fill:#1D71B8;}
</style>
<g>
	<g>
		
			<linearGradient id="SVGID_1_" gradientUnits="userSpaceOnUse" x1="102.8697" y1="132.759" x2="102.8697" y2="67.7365" gradientTransform="matrix(1 0 0 -1 0 152.5039)">
			<stop  offset="0" style="stop-color:#6BA63F"/>
			<stop  offset="0.2098" style="stop-color:#5F9D3E"/>
			<stop  offset="0.5515" style="stop-color:#40873B"/>
			<stop  offset="0.9806" style="stop-color:#006733"/>
			<stop  offset="1" style="stop-color:#006633"/>
		</linearGradient>
		<path class="st0" d="M141.4,52.8c-1.5-9.8-6.1-17.9-13.8-24.2c-7.8-6.4-16.8-9.3-26.9-8.8c-0.8,0.1-1.7,0.1-2.5,0.2
			c-0.6,0.1-1.3,0.1-1.9,0.3c-0.2,0-0.4,0-0.6,0c-6.9,1.3-13,4.2-18.3,8.9C69.6,36.1,65.2,44.7,64.1,55c-0.2,1.7-0.3,3.3,0,5
			c1.6-3.2,3.2-6.5,4.7-9.7c0.3-0.3,0.4-0.7,0.5-1.1c0.4-0.8,0.9-1.7,1.3-2.5c0.1-0.2,0.3-0.4,0.1-0.7c-0.3-0.8-0.1-1.6,0.7-2
			c0.8-0.4,1.5-0.1,2,0.6c0.2,0.5,0.1,0.9,0,1.4c-0.3,0.3-0.5,0.7-1,0.7c-0.4,0.1-0.5,0.3-0.7,0.6c-1,2-2,3.9-2.9,5.9
			c-0.5,1.1-1,2.1-1.6,3.3c0.8-0.4,1.5-0.7,2.2-0.6c0.7,0.1,1.1-0.2,1.5-0.6c7-7.1,15.6-10,25.4-8.7c6.7,0.9,12.5,4,17.9,8
			c1.3,1,2.3,2.3,3.6,3.3l0,0c0.2,0.3,0.3,0.5,0.5,0.7c2.7,3.2,4.6,6.8,5.7,10.8c1.2,4.3,1.6,8.7,0.7,13.1c0,0.2-0.1,0.5,0,0.6
			c0.8,0.6,1.1,1.5,1.4,2.6c1.6-3.2,3.1-6.3,4.7-9.4c0.2-0.3,0.1-0.5,0-0.8c-0.2-0.8,0.2-1.6,1-1.8c0.8-0.2,1.6,0.2,1.8,0.9
			c0.3,0.8-0.1,1.6-0.9,1.9c-0.5,0.2-0.7,0.4-0.9,0.9c-2,4.1-4,8.1-6,12.2c-0.1,0.1-0.2,0.3,0,0.5c0.2-0.2,0.5-0.3,0.7-0.5
			c4.7-3.6,8.3-8,11-13.2c1.8-3.4,3.1-7,3.6-10.9c0-0.1,0-0.2,0.1-0.4c0-0.1,0-0.2,0.1-0.4c0.1-0.5,0.3-1.1,0.2-1.6
			C142,59.8,141.9,56.3,141.4,52.8z"/>
		<path class="st1" d="M123.9,52.2c-0.1-0.1-0.1-0.1-0.2-0.2C123.8,52.1,123.8,52.2,123.9,52.2z"/>
		<path class="st1" d="M136.4,69.5c-0.1-0.1-0.1-0.1-0.2-0.2C136.2,69.4,136.3,69.4,136.4,69.5z"/>
		<path class="st1" d="M92.7,25.9c-0.1-0.1-0.1-0.1-0.2-0.2C92.6,25.7,92.7,25.8,92.7,25.9z"/>
		
			<linearGradient id="SVGID_2_" gradientUnits="userSpaceOnUse" x1="101.9509" y1="90.407" x2="91.3462" y2="70.7588" gradientTransform="matrix(1 0 0 -1 0 152.5039)">
			<stop  offset="0.2444" style="stop-color:#2397D4"/>
			<stop  offset="0.4292" style="stop-color:#2191D0"/>
			<stop  offset="0.7292" style="stop-color:#1D82C5"/>
			<stop  offset="1" style="stop-color:#1D71B8"/>
		</linearGradient>
		<path class="st2" d="M116.7,78.4c-1.2-4.3-3.8-7.7-7.2-10.5c-3.9-3.3-8.5-5.5-13.2-7.4c-2.3-1-4.8-1.7-7.3-1.9l0,0
			c-0.4-0.2-0.8-0.2-1.2-0.1c-1.2-0.1-2.3-0.1-3.5,0c-5.5,0.5-9.9,2.9-12.7,7.9c-1.6,3-2.1,6.2-1.2,9.5c0,0.4,0.1,0.7,0.3,1.1
			c0.3,1.1,0.9,2.1,1.6,2.9c2.8,3.5,6.6,4.6,10.8,4.9c4.4,0.3,8,2,10.8,5.4c0.8,0.9,1.7,1.9,2.6,2.6c3.5,2.8,7.4,4,11.8,2.4
			C115,92.8,118.6,85.3,116.7,78.4z"/>
	</g>
	<circle class="st3" cx="106.6" cy="82.5" r="4.4"/>
	<path class="st3" d="M89.1,71.2l-1.5-0.4l0.4-1.5c0.3-1-0.3-2-1.3-2.3s-2,0.3-2.3,1.3L84,69.8l-1.5-0.4c-1-0.3-2,0.3-2.3,1.3
		s0.3,2,1.3,2.3l1.5,0.4l-0.4,1.5c-0.3,1,0.3,2,1.3,2.3s2-0.3,2.3-1.3l0.4-1.5l1.5,0.4c1,0.3,2-0.3,2.3-1.3
		C90.7,72.5,90.1,71.4,89.1,71.2z"/>
</g>
<g class="st4">
	<path class="st5" d="M55.8,120.6c0,0.2,0,0.3-0.1,0.5c-0.1,0.1-0.1,0.3-0.3,0.4c-0.1,0.1-0.2,0.2-0.4,0.3c-0.1,0.1-0.3,0.1-0.5,0.1
		h-8.7c-0.2,0-0.5,0-0.7-0.1c-0.3-0.1-0.5-0.1-0.8-0.2c-0.3-0.1-0.5-0.3-0.7-0.4c-0.2-0.2-0.4-0.4-0.6-0.6s-0.3-0.5-0.4-0.9
		c-0.1-0.3-0.2-0.7-0.2-1.1v-6.6c0-0.2,0-0.5,0.1-0.7s0.1-0.5,0.2-0.8c0.1-0.3,0.3-0.5,0.4-0.7c0.2-0.2,0.4-0.4,0.6-0.6
		c0.3-0.2,0.5-0.3,0.9-0.4c0.3-0.1,0.7-0.2,1.1-0.2h9.9v2.4h-9.9c-0.3,0-0.6,0.1-0.7,0.3c-0.2,0.2-0.3,0.4-0.3,0.7v6.5
		c0,0.3,0.1,0.6,0.3,0.7s0.4,0.3,0.7,0.3h7.5v-3h-6.5v-2.4h7.7c0.2,0,0.3,0,0.5,0.1c0.1,0.1,0.3,0.2,0.4,0.3
		c0.1,0.1,0.2,0.2,0.3,0.4c0.1,0.1,0.1,0.3,0.1,0.5V120.6z"/>
	<path class="st5" d="M72.4,116.4c0,0.8-0.1,1.6-0.4,2.2s-0.7,1.3-1.2,1.8c-0.5,0.5-1.1,0.9-1.8,1.2c-0.7,0.3-1.4,0.4-2.2,0.4h-3.3
		c-0.8,0-1.5-0.1-2.2-0.4s-1.3-0.7-1.8-1.2c-0.5-0.5-0.9-1.1-1.2-1.8c-0.3-0.7-0.4-1.4-0.4-2.2v-2.6c0-0.8,0.1-1.6,0.4-2.2
		c0.3-0.7,0.7-1.3,1.2-1.8c0.5-0.5,1.1-0.9,1.8-1.2c0.7-0.3,1.4-0.4,2.2-0.4h3.3c0.8,0,1.5,0.1,2.2,0.4c0.7,0.3,1.3,0.7,1.8,1.2
		c0.5,0.5,0.9,1.1,1.2,1.8c0.3,0.7,0.4,1.4,0.4,2.2V116.4z M69.9,113.8c0-0.5-0.1-0.9-0.2-1.3s-0.4-0.7-0.6-1s-0.6-0.5-1-0.6
		c-0.4-0.2-0.8-0.2-1.3-0.2h-3.3c-0.5,0-0.9,0.1-1.3,0.2c-0.4,0.2-0.7,0.4-1,0.6s-0.5,0.6-0.6,1s-0.2,0.8-0.2,1.3v2.6
		c0,0.5,0.1,0.9,0.2,1.3c0.2,0.4,0.4,0.7,0.6,1c0.3,0.3,0.6,0.5,1,0.6c0.4,0.2,0.8,0.2,1.3,0.2h3.3c0.5,0,0.9-0.1,1.3-0.2
		c0.4-0.2,0.7-0.4,1-0.6c0.3-0.3,0.5-0.6,0.6-1c0.2-0.4,0.2-0.8,0.2-1.3V113.8z"/>
	<path class="st5" d="M88.1,116.2c0,0.8-0.1,1.6-0.4,2.2c-0.3,0.7-0.7,1.3-1.2,1.8c-0.5,0.5-1.1,0.9-1.8,1.2
		c-0.7,0.3-1.4,0.4-2.2,0.4H76c-0.2,0-0.3,0-0.5-0.1c-0.1-0.1-0.3-0.1-0.4-0.3s-0.2-0.2-0.3-0.4c-0.1-0.1-0.1-0.3-0.1-0.5v-10.9
		c0-0.2,0-0.3,0.1-0.5c0.1-0.1,0.1-0.3,0.3-0.4s0.2-0.2,0.4-0.3c0.1-0.1,0.3-0.1,0.5-0.1h6.5c0.8,0,1.5,0.1,2.2,0.4
		c0.7,0.3,1.3,0.7,1.8,1.2c0.5,0.5,0.9,1.1,1.2,1.8c0.3,0.7,0.4,1.4,0.4,2.2V116.2z M85.7,114c0-0.5-0.1-0.9-0.2-1.3
		c-0.2-0.4-0.4-0.7-0.6-1s-0.6-0.5-1-0.6s-0.8-0.2-1.3-0.2h-5.3v8.5h5.3c0.5,0,0.9-0.1,1.3-0.2s0.7-0.4,1-0.6c0.3-0.3,0.5-0.6,0.6-1
		c0.2-0.4,0.2-0.8,0.2-1.3V114z"/>
	<path class="st5" d="M104.5,116.4c0,0.8-0.1,1.6-0.4,2.2c-0.3,0.7-0.7,1.3-1.2,1.8c-0.5,0.5-1.1,0.9-1.8,1.2
		c-0.7,0.3-1.4,0.4-2.2,0.4h-3.3c-0.8,0-1.5-0.1-2.2-0.4s-1.3-0.7-1.8-1.2c-0.5-0.5-0.9-1.1-1.2-1.8c-0.3-0.7-0.4-1.4-0.4-2.2v-2.6
		c0-0.8,0.1-1.6,0.4-2.2c0.3-0.7,0.7-1.3,1.2-1.8c0.5-0.5,1.1-0.9,1.8-1.2c0.7-0.3,1.4-0.4,2.2-0.4h3.3c0.8,0,1.5,0.1,2.2,0.4
		c0.7,0.3,1.3,0.7,1.8,1.2c0.5,0.5,0.9,1.1,1.2,1.8c0.3,0.7,0.4,1.4,0.4,2.2V116.4z M102.1,113.8c0-0.5-0.1-0.9-0.2-1.3
		s-0.4-0.7-0.6-1s-0.6-0.5-1-0.6c-0.4-0.2-0.8-0.2-1.3-0.2h-3.3c-0.5,0-0.9,0.1-1.3,0.2c-0.4,0.2-0.7,0.4-1,0.6s-0.5,0.6-0.6,1
		s-0.2,0.8-0.2,1.3v2.6c0,0.5,0.1,0.9,0.2,1.3c0.2,0.4,0.4,0.7,0.6,1c0.3,0.3,0.6,0.5,1,0.6c0.4,0.2,0.8,0.2,1.3,0.2h3.3
		c0.5,0,0.9-0.1,1.3-0.2c0.4-0.2,0.7-0.4,1-0.6c0.3-0.3,0.5-0.6,0.6-1c0.2-0.4,0.2-0.8,0.2-1.3V113.8z"/>
	<path class="st5" d="M118.8,110.9h-5.3v10.9H111v-10.9h-5.4v-2.4h13.1V110.9z"/>
	<path class="st5" d="M133.9,116.2c0,0.8-0.1,1.6-0.4,2.2s-0.7,1.3-1.2,1.8c-0.5,0.5-1.1,0.9-1.8,1.2c-0.7,0.3-1.4,0.4-2.2,0.4h-6.5
		c-0.2,0-0.3,0-0.5-0.1c-0.1-0.1-0.3-0.1-0.4-0.3c-0.1-0.1-0.2-0.2-0.3-0.4c-0.1-0.1-0.1-0.3-0.1-0.5v-10.9c0-0.2,0-0.3,0.1-0.5
		c0.1-0.1,0.1-0.3,0.3-0.4c0.1-0.1,0.2-0.2,0.4-0.3c0.1-0.1,0.3-0.1,0.5-0.1h6.5c0.8,0,1.5,0.1,2.2,0.4c0.7,0.3,1.3,0.7,1.8,1.2
		c0.5,0.5,0.9,1.1,1.2,1.8c0.3,0.7,0.4,1.4,0.4,2.2V116.2z M131.5,114c0-0.5-0.1-0.9-0.2-1.3c-0.2-0.4-0.4-0.7-0.6-1
		c-0.3-0.3-0.6-0.5-1-0.6s-0.8-0.2-1.3-0.2H123v8.5h5.3c0.5,0,0.9-0.1,1.3-0.2s0.7-0.4,1-0.6c0.3-0.3,0.5-0.6,0.6-1
		c0.2-0.4,0.2-0.8,0.2-1.3V114z"/>
	<path class="st5" d="M148.4,121.8h-8.7c-0.3,0-0.7-0.1-1.1-0.2c-0.4-0.1-0.8-0.3-1.1-0.6s-0.6-0.6-0.8-1.1c-0.2-0.4-0.3-1-0.3-1.6
		v-8.7c0-0.2,0-0.3,0.1-0.5c0.1-0.1,0.1-0.3,0.3-0.4c0.1-0.1,0.2-0.2,0.4-0.3c0.1-0.1,0.3-0.1,0.5-0.1h10.9v2.4h-9.7v7.5
		c0,0.3,0.1,0.6,0.3,0.7s0.4,0.3,0.7,0.3h8.7V121.8z M147.3,116.3h-7.7v-2.4h7.7V116.3z"/>
	<path class="st5" d="M164.1,108.4l-6.3,12.9c-0.1,0.2-0.2,0.4-0.4,0.5c-0.2,0.1-0.4,0.2-0.6,0.2c-0.2,0-0.4-0.1-0.6-0.2
		c-0.2-0.1-0.3-0.3-0.5-0.5l-6.3-12.9h2.7l4.7,9.6l4.7-9.6H164.1z"/>
</g>
<g class="st4">
	<path class="st6" d="M86.4,135.4c0,0.1,0,0.2-0.1,0.3s-0.1,0.2-0.2,0.2s-0.1,0.1-0.2,0.2s-0.2,0.1-0.3,0.1c-0.1,0-0.2,0-0.3-0.1
		s-0.2-0.1-0.2-0.2s-0.1-0.1-0.2-0.2s-0.1-0.2-0.1-0.3c0-0.1,0-0.2,0.1-0.3s0.1-0.2,0.2-0.2s0.1-0.1,0.2-0.2s0.2-0.1,0.3-0.1
		c0.1,0,0.2,0,0.3,0.1s0.2,0.1,0.2,0.2s0.1,0.1,0.2,0.2S86.4,135.3,86.4,135.4z"/>
	<path class="st6" d="M96.1,135.5c0,0.1,0,0.2-0.1,0.3s-0.1,0.2-0.2,0.2s-0.1,0.1-0.2,0.2s-0.2,0.1-0.3,0.1c-0.1,0-0.2,0-0.3-0.1
		s-0.2-0.1-0.3-0.2l-5.6-5.8v5.9h-1.5v-7.8c0-0.2,0-0.3,0.1-0.4s0.2-0.2,0.3-0.3c0.1-0.1,0.3-0.1,0.4,0s0.3,0.1,0.4,0.2l5.6,5.8
		v-5.9h1.5V135.5z"/>
	<path class="st6" d="M106.3,127.8l-4,8.1c-0.1,0.1-0.2,0.2-0.3,0.3s-0.3,0.1-0.4,0.1c-0.1,0-0.3,0-0.4-0.1s-0.2-0.2-0.3-0.3l-4-8.1
		h1.7l3,6.1l3-6.1H106.3z"/>
	<path class="st6" d="M108.7,136.2h-1.5v-8.4h1.5V136.2z"/>
	<path class="st6" d="M120.3,136.2h-1.5v-5l-2.7,4.8c-0.1,0.1-0.2,0.2-0.3,0.3s-0.2,0.1-0.4,0.1c-0.1,0-0.3,0-0.4-0.1
		s-0.2-0.2-0.3-0.3l-2.7-4.8v5h-1.5v-7.8c0-0.2,0.1-0.3,0.2-0.5s0.2-0.2,0.4-0.3c0.1,0,0.2,0,0.2,0s0.2,0,0.2,0.1s0.1,0.1,0.2,0.1
		s0.1,0.1,0.2,0.2l3.5,6l3.5-6c0.1-0.1,0.2-0.3,0.4-0.3s0.3-0.1,0.5,0c0.2,0,0.3,0.1,0.4,0.3s0.2,0.3,0.2,0.5V136.2z"/>
</g>
</svg>
